Coordinates
version=1
nRows=10
nColumns=40
inDegrees=yes

Units are S.I. units (second, meters, Newtons, ...)
Angles are in degrees.

endheader
time	pelvis_tilt	pelvis_list	pelvis_rotation	pelvis_tx	pelvis_ty	pelvis_tz	hip_flexion_r	hip_adduction_r	hip_rotation_r	knee_angle_r	knee_angle_r_beta	ankle_angle_r	subtalar_angle_r	mtp_angle_r	hip_flexion_l	hip_adduction_l	hip_rotation_l	knee_angle_l	knee_angle_l_beta	ankle_angle_l	subtalar_angle_l	mtp_angle_l	lumbar_extension	lumbar_bending	lumbar_rotation	arm_flex_r	arm_add_r	arm_rot_r	elbow_flex_r	pro_sup_r	wrist_flex_r	wrist_dev_r	arm_flex_l	arm_add_l	arm_rot_l	elbow_flex_l	pro_sup_l	wrist_flex_l	wrist_dev_l
     12.16314286	     -2.77304081	     -4.85320278	      0.45657083	      1.01576809	      0.93426112	      0.41623905	     30.82013015	     -5.55210689	     -5.15366972	     54.26438098	     54.26438098	      1.63621912	     -8.52442197	     -2.38016352	     11.98642909	     -6.25365829	     -8.87539645	     21.30961136	     21.30961136	     14.19970497	     -8.59461204	     -1.63031071	    -10.78469897	      4.56381347	      1.14623636	     -0.57261517	    -13.00975470	      1.43722796	     28.73326916	     46.34770582	      0.00000000	      0.00000000	     14.85721623	    -18.92199069	      1.73154258	     55.42107311	     45.86896196	      0.00000000	      0.00000000
     12.17628571	     -2.85738095	     -4.97588586	      0.10698816	      1.01515485	      0.93453435	      0.41679290	     30.81824034	     -5.24851418	     -5.28814401	     51.03204124	     51.03204124	      1.94998951	     -8.00074861	     -2.16402952	     11.46231667	     -6.39109538	     -9.07085211	     20.89141440	     20.89141440	     14.32116853	     -8.69980701	     -1.68498969	    -10.72505393	      4.70975614	      0.91043075	     -1.40426888	    -12.93480773	      1.20958690	     28.67622382	     46.35680446	      0.00000000	      0.00000000	     15.64086476	    -19.29835645	      1.44343836	     56.00996677	     45.91505147	      0.00000000	      0.00000000
     12.18942857	     -2.97703474	     -5.05153530	     -0.25669925	      1.01457149	      0.93467341	      0.41752332	     30.69540936	     -4.95423450	     -5.42201837	     47.47793637	     47.47793637	      2.29831014	     -7.35677903	     -1.96502396	     10.93730177	     -6.48367422	     -9.29565387	     20.40006424	     20.40006424	     14.39214900	     -8.77488057	     -1.75159310	    -10.67187968	      4.78950099	      0.86513613	     -2.28425849	    -12.85181269	      0.97139053	     28.67452834	     46.36375851	      0.00000000	      0.00000000	     16.45383307	    -19.58692037	      1.07704410	     56.83470199	     45.96999579	      0.00000000	      0.00000000
     12.20257143	     -3.03155430	     -5.06272587	     -0.63564910	      1.01409429	      0.93479444	      0.41838212	     30.34986176	     -4.69150031	     -5.57620161	     43.64830321	     43.64830321	      2.56842151	     -6.53423115	     -1.83171457	     10.31556652	     -6.51099140	     -9.56112138	     19.88886302	     19.88886302	     14.42842782	     -8.86207261	     -1.92806208	    -10.70926474	      4.80088599	      0.95984683	     -3.19082576	    -12.79116563	      0.58775403	     28.88189814	     46.37085449	      0.00000000	      0.00000000	     17.24165164	    -19.77309245	      0.56145517	     57.96875995	     46.04330746	      0.00000000	      0.00000000
     12.21571429	     -3.30958199	     -5.11212270	     -0.98715914	      1.01351584	      0.93450990	      0.41950698	     30.09027763	     -4.33626680	     -5.79165155	     39.60167591	     39.60167591	      2.83399084	     -5.60001964	     -1.50433806	      9.99614143	     -6.60236888	     -9.77517572	     19.45562959	     19.45562959	     14.47448837	     -8.92826377	     -2.05932883	    -10.52461745	      4.75413915	      0.91721821	     -3.93198106	    -12.59946863	      0.36724560	     29.00120974	     46.37242703	      0.00000000	      0.00000000	     17.99389475	    -20.08504192	      0.13929524	     58.81633715	     46.10050932	      0.00000000	      0.00000000
     12.22885714	     -3.31676786	     -5.03007058	     -1.30846289	      1.01332829	      0.93438062	      0.42047127	     29.40302225	     -4.14636612	     -6.13101497	     35.48139272	     35.48139272	      3.04253453	     -4.42283782	     -1.20024878	      9.35669505	     -6.53569308	    -10.07029610	     19.03273585	     19.03273585	     14.57753578	     -9.01461839	     -2.35394272	    -10.54675599	      4.72372213	      0.99781893	     -4.68774019	    -12.58991890	     -0.02187558	     29.30966876	     46.37669468	      0.00000000	      0.00000000	     18.70065387	    -20.18478398	     -0.44365220	     59.99744793	     46.17718978	      0.00000000	      0.00000000
     12.24200000	     -3.50898178	     -4.95526342	     -1.61722552	      1.01309082	      0.93392905	      0.42171739	     28.79563188	     -3.87209573	     -6.51198345	     31.31268737	     31.31268737	      3.18970759	     -3.12692368	     -0.69077133	      8.94507017	     -6.50148596	    -10.31423118	     18.63838713	     18.63838713	     14.61589830	     -9.04308207	     -2.61983249	    -10.41795665	      4.62849997	      1.03454005	     -5.32404043	    -12.42741432	     -0.32383980	     29.59232800	     46.37700738	      0.00000000	      0.00000000	     19.37786665	    -20.35019177	     -0.98481294	     61.01019736	     46.24613865	      0.00000000	      0.00000000
     12.25514286	     -3.53444971	     -4.81256460	     -1.88432510	      1.01314601	      0.93348093	      0.42295939	     27.95030384	     -3.72451910	     -7.19170161	     27.35404162	     27.35404162	      3.37376607	     -1.28895232	     -0.07953335	      8.26846228	     -6.37246330	    -10.58781488	     18.07128238	     18.07128238	     14.22803309	     -9.25243704	     -3.94027731	    -10.53311489	      4.47039629	      0.94522062	     -6.27524554	    -12.20395042	     -1.99401927	     31.30751459	     46.39032524	      0.00000000	      0.00000000	     19.50790711	    -20.21978124	     -2.93100835	     63.31101036	     46.47243880	      0.00000000	      0.00000000
     12.26828571	     -3.63118832	     -4.63836319	     -2.11601532	      1.01334556	      0.93288514	      0.42432142	     27.16032677	     -3.54239059	     -7.88444782	     23.70336472	     23.70336472	      3.53553260	      0.38353265	      1.14275916	      7.71787491	     -6.22415888	    -10.81542254	     17.63962751	     17.63962751	     14.28667268	     -9.21858841	     -4.36844103	    -10.46030493	      4.27749095	      1.08194804	     -6.71406962	    -12.07071272	     -2.39574110	     31.33396107	     46.40004336	      0.00000000	      0.00000000	     20.22331913	    -20.22128206	     -3.41507711	     64.09247243	     46.54878963	      0.00000000	      0.00000000
     12.28142857	     -3.73869907	     -4.52543930	     -2.27487658	      1.01369976	      0.93212837	      0.42581752	     26.36902878	     -3.24452492	     -8.57361109	     20.43951976	     20.43951976	      3.49970618	      1.66119297	      2.22410320	      7.28465146	     -6.16870297	    -10.96375031	     17.41596935	     17.41596935	     14.47070959	     -9.22754880	     -4.60133029	    -10.32306030	      4.17378284	      1.10858152	     -7.01497107	    -11.97973586	     -2.51220171	     31.35388363	     46.39959661	      0.00000000	      0.00000000	     20.88003000	    -20.29123305	     -3.69289889	     64.69382027	     46.59176282	      0.00000000	      0.00000000
